<svg width="156" height="34" viewBox="0 0 156 34" fill="none" xmlns="http://www.w3.org/2000/svg">
<g clip-path="url(#clip0_22_811)">
<path fill-rule="evenodd" clip-rule="evenodd" d="M12.401 22.0699C4.72489 22.1133 1.66434 14.668 3.51926 7.21822C7.18811 2.02157 14.0408 -0.437922 21.1594 1.86814C20.3386 2.78175 20.6269 2.54284 19.8016 3.43015C13.8671 9.81397 9.51089 28.5768 23.7035 30.8939C21.2868 32.9932 16.2118 33.4064 12.5733 32.6469C0.786078 30.1867 -3.21603 16.0155 2.71852 8.31921C2.06999 12.8353 1.72506 16.3304 4.15391 20.4454C5.8058 23.2443 8.2222 25.4488 13.0503 25.2136L12.401 22.0699L12.401 22.0699Z" fill="#1C1EB5"/>
<path fill-rule="evenodd" clip-rule="evenodd" d="M18.582 23.3524C19.4947 26.8519 22.5852 28.865 27.1529 28.7083C29.0923 26.3763 31.4165 23.4405 31.9081 18.7399C32.3906 14.1248 30.9183 10.1405 28.6899 7.4834C26.5661 15.4365 25.1051 18.4531 18.582 23.3524V23.3524Z" fill="#1C1EB5"/>
<path fill-rule="evenodd" clip-rule="evenodd" d="M17.6826 18.1626C21.5595 17.0364 25.2449 10.2727 25.8909 4.6881L24.6922 3.81543C19.7613 7.73865 17.282 14.9539 17.6826 18.1626Z" fill="#1C1EB5"/>
</g>
<path d="M37.896 25V8.08H40.464L46.464 19.144L52.44 8.08H54.96V25H52.176V13.6L47.328 22.432H45.528L40.68 13.648V25H37.896ZM59.4519 29.32L61.6119 24.52L56.7399 13.264H59.9319L63.2199 21.472L66.5799 13.264H69.6039L62.5479 29.32H59.4519ZM77.7968 25.24C76.9328 25.24 76.1568 25.048 75.4688 24.664C74.7968 24.28 74.2928 23.76 73.9568 23.104V25H71.0288V8.08H74.0288V14.992C74.3808 14.4 74.8848 13.928 75.5408 13.576C76.2128 13.208 76.9648 13.024 77.7968 13.024C78.8368 13.024 79.7408 13.272 80.5088 13.768C81.2768 14.264 81.8768 14.968 82.3088 15.88C82.7408 16.776 82.9568 17.856 82.9568 19.12C82.9568 20.368 82.7408 21.456 82.3088 22.384C81.8768 23.296 81.2688 24 80.4848 24.496C79.7168 24.992 78.8208 25.24 77.7968 25.24ZM76.9568 22.96C77.8528 22.96 78.5728 22.64 79.1168 22C79.6608 21.344 79.9328 20.384 79.9328 19.12C79.9328 17.84 79.6608 16.888 79.1168 16.264C78.5728 15.624 77.8528 15.304 76.9568 15.304C76.0608 15.304 75.3408 15.624 74.7968 16.264C74.2528 16.888 73.9808 17.84 73.9808 19.12C73.9808 20.384 74.2528 21.344 74.7968 22C75.3408 22.64 76.0608 22.96 76.9568 22.96ZM85.2274 10.744V7.816H88.5874V10.744H85.2274ZM85.4194 25V13.264H88.4194V25H85.4194ZM96.9126 25.24C93.8086 25.24 92.2566 23.704 92.2566 20.632V15.52H90.0006V13.264H92.2566V9.76H95.2566V13.264H98.8086V15.52H95.2566V20.464C95.2566 21.232 95.4246 21.808 95.7606 22.192C96.0966 22.576 96.6406 22.768 97.3926 22.768C97.6166 22.768 97.8486 22.744 98.0886 22.696C98.3286 22.632 98.5766 22.568 98.8326 22.504L99.2886 24.712C99.0006 24.872 98.6326 25 98.1846 25.096C97.7526 25.192 97.3286 25.24 96.9126 25.24ZM105.044 25.24C104.052 25.24 103.124 25.12 102.26 24.88C101.396 24.64 100.676 24.296 100.1 23.848L100.868 21.88C101.46 22.28 102.124 22.592 102.86 22.816C103.596 23.024 104.332 23.128 105.068 23.128C105.836 23.128 106.404 23 106.772 22.744C107.156 22.472 107.348 22.12 107.348 21.688C107.348 21.016 106.852 20.584 105.86 20.392L103.46 19.936C101.428 19.552 100.412 18.496 100.412 16.768C100.412 16 100.62 15.336 101.036 14.776C101.468 14.216 102.06 13.784 102.812 13.48C103.564 13.176 104.428 13.024 105.404 13.024C106.236 13.024 107.036 13.144 107.804 13.384C108.572 13.608 109.228 13.952 109.772 14.416L108.956 16.384C108.492 16 107.932 15.696 107.276 15.472C106.636 15.248 106.02 15.136 105.428 15.136C104.644 15.136 104.06 15.272 103.676 15.544C103.308 15.816 103.124 16.176 103.124 16.624C103.124 17.328 103.58 17.76 104.492 17.92L106.892 18.376C107.932 18.568 108.716 18.92 109.244 19.432C109.788 19.944 110.06 20.632 110.06 21.496C110.06 22.664 109.604 23.584 108.692 24.256C107.78 24.912 106.564 25.24 105.044 25.24ZM117.725 25.24C114.621 25.24 113.069 23.704 113.069 20.632V15.52H110.813V13.264H113.069V9.76H116.069V13.264H119.621V15.52H116.069V20.464C116.069 21.232 116.237 21.808 116.573 22.192C116.909 22.576 117.453 22.768 118.205 22.768C118.429 22.768 118.661 22.744 118.901 22.696C119.141 22.632 119.389 22.568 119.645 22.504L120.101 24.712C119.813 24.872 119.445 25 118.997 25.096C118.565 25.192 118.141 25.24 117.725 25.24ZM126.795 25.24C125.579 25.24 124.523 24.992 123.627 24.496C122.731 24 122.035 23.296 121.539 22.384C121.043 21.456 120.795 20.368 120.795 19.12C120.795 17.872 121.043 16.792 121.539 15.88C122.035 14.968 122.731 14.264 123.627 13.768C124.523 13.272 125.579 13.024 126.795 13.024C128.011 13.024 129.067 13.272 129.963 13.768C130.859 14.264 131.555 14.968 132.051 15.88C132.547 16.792 132.795 17.872 132.795 19.12C132.795 20.368 132.547 21.456 132.051 22.384C131.555 23.296 130.859 24 129.963 24.496C129.067 24.992 128.011 25.24 126.795 25.24ZM126.795 22.96C127.691 22.96 128.411 22.64 128.955 22C129.499 21.344 129.771 20.384 129.771 19.12C129.771 17.84 129.499 16.888 128.955 16.264C128.411 15.624 127.691 15.304 126.795 15.304C125.899 15.304 125.179 15.624 124.635 16.264C124.091 16.888 123.819 17.84 123.819 19.12C123.819 20.384 124.091 21.344 124.635 22C125.179 22.64 125.899 22.96 126.795 22.96ZM135.271 25V13.264H138.199V15.328C138.775 13.936 140.007 13.168 141.895 13.024L142.807 12.952L142.999 15.496L141.271 15.664C139.303 15.856 138.319 16.864 138.319 18.688V25H135.271ZM150.266 25.24C148.938 25.24 147.794 24.992 146.834 24.496C145.874 24 145.13 23.296 144.602 22.384C144.09 21.472 143.834 20.392 143.834 19.144C143.834 17.928 144.082 16.864 144.578 15.952C145.09 15.04 145.786 14.328 146.666 13.816C147.562 13.288 148.578 13.024 149.714 13.024C151.378 13.024 152.69 13.552 153.65 14.608C154.626 15.664 155.114 17.104 155.114 18.928V19.816H146.714C146.938 21.912 148.138 22.96 150.314 22.96C150.97 22.96 151.626 22.864 152.282 22.672C152.938 22.464 153.538 22.144 154.082 21.712L154.922 23.728C154.362 24.192 153.658 24.56 152.81 24.832C151.962 25.104 151.114 25.24 150.266 25.24ZM149.834 15.064C148.954 15.064 148.242 15.336 147.698 15.88C147.154 16.424 146.826 17.16 146.714 18.088H152.618C152.554 17.112 152.282 16.368 151.802 15.856C151.338 15.328 150.682 15.064 149.834 15.064Z" fill="#1C1EB5"/>
<defs>
<clipPath id="clip0_22_811">
<rect width="32" height="32" fill="white" transform="translate(0 1)"/>
</clipPath>
</defs>
</svg>
